TITLE ""
FILE "1Q_t_0510-0519.mp3" MP3
  TRACK 01 AUDIO
    TITLE "1Q_t_0510-0519_01"
    INDEX 01 00:00:00
  TRACK 02 AUDIO
    TITLE "1Q_t_0510-0519_02"
    INDEX 01 00:00:08
  TRACK 03 AUDIO
    TITLE "1Q_t_0510-0519_03"
    INDEX 01 00:01:23
  TRACK 04 AUDIO
    TITLE "1Q_t_0510-0519_04"
    INDEX 01 00:01:39
  TRACK 05 AUDIO
    TITLE "1Q_t_0510-0519_05"
    INDEX 01 00:03:07
  TRACK 06 AUDIO
    TITLE "1Q_t_0510-0519_06"
    INDEX 01 00:03:20
  TRACK 07 AUDIO
    TITLE "1Q_t_0510-0519_07"
    INDEX 01 00:07:10
  TRACK 08 AUDIO
    TITLE "1Q_t_0510-0519_08"
    INDEX 01 00:07:61
  TRACK 09 AUDIO
    TITLE "1Q_t_0510-0519_09"
    INDEX 01 00:09:07
  TRACK 10 AUDIO
    TITLE "1Q_t_0510-0519_10"
    INDEX 01 00:09:25
  TRACK 11 AUDIO
    TITLE "1Q_t_0510-0519_11"
    INDEX 01 00:12:08
  TRACK 12 AUDIO
    TITLE "1Q_t_0510-0519_12"
    INDEX 01 00:12:23
  TRACK 13 AUDIO
    TITLE "1Q_t_0510-0519_13"
    INDEX 01 00:16:62
  TRACK 14 AUDIO
    TITLE "1Q_t_0510-0519_14"
    INDEX 01 00:17:40
  TRACK 15 AUDIO
    TITLE "1Q_t_0510-0519_15"
    INDEX 01 00:18:42
  TRACK 16 AUDIO
    TITLE "1Q_t_0510-0519_16"
    INDEX 01 00:18:57
  TRACK 17 AUDIO
    TITLE "1Q_t_0510-0519_17"
    INDEX 01 00:20:17
  TRACK 18 AUDIO
    TITLE "1Q_t_0510-0519_18"
    INDEX 01 00:20:31
  TRACK 19 AUDIO
    TITLE "1Q_t_0510-0519_19"
    INDEX 01 00:26:12
  TRACK 20 AUDIO
    TITLE "1Q_t_0510-0519_20"
    INDEX 01 00:26:66
  TRACK 21 AUDIO
    TITLE "1Q_t_0510-0519_21"
    INDEX 01 00:28:03
  TRACK 22 AUDIO
    TITLE "1Q_t_0510-0519_22"
    INDEX 01 00:28:18
  TRACK 23 AUDIO
    TITLE "1Q_t_0510-0519_23"
    INDEX 01 00:30:17
  TRACK 24 AUDIO
    TITLE "1Q_t_0510-0519_24"
    INDEX 01 00:30:33
  TRACK 25 AUDIO
    TITLE "1Q_t_0510-0519_25"
    INDEX 01 00:35:20
  TRACK 26 AUDIO
    TITLE "1Q_t_0510-0519_26"
    INDEX 01 00:35:71
  TRACK 27 AUDIO
    TITLE "1Q_t_0510-0519_27"
    INDEX 01 00:37:09
  TRACK 28 AUDIO
    TITLE "1Q_t_0510-0519_28"
    INDEX 01 00:37:25
  TRACK 29 AUDIO
    TITLE "1Q_t_0510-0519_29"
    INDEX 01 00:38:70
  TRACK 30 AUDIO
    TITLE "1Q_t_0510-0519_30"
    INDEX 01 00:39:10
  TRACK 31 AUDIO
    TITLE "1Q_t_0510-0519_31"
    INDEX 01 00:42:64
  TRACK 32 AUDIO
    TITLE "1Q_t_0510-0519_32"
    INDEX 01 00:43:41
  TRACK 33 AUDIO
    TITLE "1Q_t_0510-0519_33"
    INDEX 01 00:44:53
  TRACK 34 AUDIO
    TITLE "1Q_t_0510-0519_34"
    INDEX 01 00:44:66
  TRACK 35 AUDIO
    TITLE "1Q_t_0510-0519_35"
    INDEX 01 00:47:00
  TRACK 36 AUDIO
    TITLE "1Q_t_0510-0519_36"
    INDEX 01 00:47:14
  TRACK 37 AUDIO
    TITLE "1Q_t_0510-0519_37"
    INDEX 01 00:50:61
  TRACK 38 AUDIO
    TITLE "1Q_t_0510-0519_38"
    INDEX 01 00:51:39
  TRACK 39 AUDIO
    TITLE "1Q_t_0510-0519_39"
    INDEX 01 00:52:60
  TRACK 40 AUDIO
    TITLE "1Q_t_0510-0519_40"
    INDEX 01 00:52:74
  TRACK 41 AUDIO
    TITLE "1Q_t_0510-0519_41"
    INDEX 01 00:54:22
  TRACK 42 AUDIO
    TITLE "1Q_t_0510-0519_42"
    INDEX 01 00:54:35
  TRACK 43 AUDIO
    TITLE "1Q_t_0510-0519_43"
    INDEX 01 00:59:11
  TRACK 44 AUDIO
    TITLE "1Q_t_0510-0519_44"
    INDEX 01 00:59:66
  TRACK 45 AUDIO
    TITLE "1Q_t_0510-0519_45"
    INDEX 01 01:01:10
  TRACK 46 AUDIO
    TITLE "1Q_t_0510-0519_46"
    INDEX 01 01:01:28
  TRACK 47 AUDIO
    TITLE "1Q_t_0510-0519_47"
    INDEX 01 01:03:58
  TRACK 48 AUDIO
    TITLE "1Q_t_0510-0519_48"
    INDEX 01 01:04:01
  TRACK 49 AUDIO
    TITLE "1Q_t_0510-0519_49"
    INDEX 01 01:09:37
  TRACK 50 AUDIO
    TITLE "1Q_t_0510-0519_50"
    INDEX 01 01:10:15
  TRACK 51 AUDIO
    TITLE "1Q_t_0510-0519_51"
    INDEX 01 01:11:36
  TRACK 52 AUDIO
    TITLE "1Q_t_0510-0519_52"
    INDEX 01 01:11:52
  TRACK 53 AUDIO
    TITLE "1Q_t_0510-0519_53"
    INDEX 01 01:17:25
  TRACK 54 AUDIO
    TITLE "1Q_t_0510-0519_54"
    INDEX 01 01:17:40
  TRACK 55 AUDIO
    TITLE "1Q_t_0510-0519_55"
    INDEX 01 01:22:63
  TRACK 56 AUDIO
    TITLE "1Q_t_0510-0519_56"
    INDEX 01 01:23:39
  TRACK 57 AUDIO
    TITLE "1Q_t_0510-0519_57"
    INDEX 01 01:24:46
  TRACK 58 AUDIO
    TITLE "1Q_t_0510-0519_58"
    INDEX 01 01:24:64
  TRACK 59 AUDIO
    TITLE "1Q_t_0510-0519_59"
    INDEX 01 01:27:21
  TRACK 60 AUDIO
    TITLE "1Q_t_0510-0519_60"
    INDEX 01 01:27:35
  TRACK 61 AUDIO
    TITLE "1Q_t_0510-0519_61"
    INDEX 01 01:32:30
